<svg version="1.1" id="Layer_1" xmlns="http://www.w3.org/2000/svg" xmlns:xlink="http://www.w3.org/1999/xlink" x="0px" y="0px"
	 width="100%" viewBox="0 0 500 500" enable-background="new 0 0 500 500" xml:space="preserve">
<path fill="#000000" opacity="1.000000" stroke="none" 
	d="
M239.000000,501.000000 
	C159.333359,501.000000 80.166702,501.000000 1.000042,501.000000 
	C1.000028,334.333405 1.000028,167.666779 1.000014,1.000132 
	C167.666565,1.000088 334.333130,1.000088 500.999756,1.000044 
	C500.999847,167.666519 500.999847,334.333038 500.999939,500.999786 
	C413.833344,501.000000 326.666656,501.000000 239.000000,501.000000 
M203.877121,227.499954 
	C203.877121,247.249680 203.877121,266.999420 203.877121,286.745880 
	C212.023590,286.745880 219.599655,286.745880 227.546814,286.745880 
	C227.546814,284.686279 227.546814,282.882202 227.546829,281.078156 
	C227.546936,261.588379 227.524307,242.098572 227.563782,222.608887 
	C227.573166,217.972610 231.788055,213.836731 236.477646,213.750061 
	C242.378448,213.640945 240.935333,218.372482 241.520065,221.662552 
	C241.778656,223.117691 241.594421,224.653259 241.594604,226.152313 
	C241.596909,244.642609 241.596130,263.132904 241.596146,281.623199 
	C241.596146,283.360931 241.596130,285.098663 241.596130,286.670502 
	C248.399017,286.670502 254.476639,286.670502 260.799774,286.670502 
	C260.799774,265.370392 260.794739,244.404358 260.803436,223.438339 
	C260.805511,218.506378 263.772949,214.795761 268.356506,213.907379 
	C271.652039,213.268677 274.021729,214.081528 274.361664,217.860916 
	C274.584747,220.341156 274.799866,222.833191 274.804108,225.320297 
	C274.839111,245.791473 274.823883,266.262726 274.823883,286.697632 
	C282.738312,286.697632 290.316406,286.697632 297.967804,286.697632 
	C297.967804,262.418121 297.997528,238.446304 297.923096,214.474808 
	C297.915436,212.003113 297.439117,209.500870 296.920105,207.068314 
	C294.696930,196.648499 287.531952,191.040390 277.020416,192.865692 
	C272.060883,193.726898 267.477631,196.961288 262.838898,199.344269 
	C261.351990,200.108063 260.234039,201.590027 258.816772,202.860458 
	C255.031357,194.554489 250.449158,191.982056 242.524170,192.615112 
	C235.029724,193.213806 230.706619,198.547668 225.657623,203.735641 
	C224.901031,200.630783 224.294174,198.140442 223.712448,195.753174 
	C217.001862,195.753174 210.572479,195.753174 203.877121,195.753174 
	C203.877121,206.200485 203.877121,216.350220 203.877121,227.499954 
M402.214783,237.676315 
	C392.494324,244.869614 388.663147,254.724243 389.240540,266.534241 
	C389.557648,273.021210 390.058838,279.499878 390.319946,285.988647 
	C390.840179,298.915802 386.961456,302.894989 374.119476,302.754150 
	C372.290802,302.734070 370.463409,302.450043 368.636627,302.462677 
	C367.418091,302.471130 366.201630,302.789032 364.913910,302.978821 
	C365.707214,308.284210 369.588379,306.494812 372.116577,306.665436 
	C389.486572,307.837982 394.787048,302.237183 393.556091,284.931000 
	C393.013763,277.306274 392.602997,269.606171 393.041229,261.992615 
	C393.769775,249.334305 400.051880,242.849899 412.381470,240.625717 
	C413.229187,240.472794 413.918884,239.443893 414.682068,238.822388 
	C413.548584,237.875458 412.406006,236.099380 411.283081,236.111740 
	C401.603180,236.218246 394.913696,228.811417 394.092377,221.111618 
	C393.217072,212.906006 393.629883,204.564438 393.447662,196.282928 
	C393.341980,191.477570 393.553436,186.623093 392.925201,181.883072 
	C392.279083,177.007996 389.530670,172.559860 384.675659,171.537338 
	C378.403076,170.216293 371.823761,170.351593 365.376526,169.859787 
	C365.180298,170.591675 364.984039,171.323547 364.787781,172.055435 
	C366.136932,172.780502 367.432068,173.964844 368.846893,174.131195 
	C371.470459,174.439651 374.165039,174.188995 376.828156,174.108414 
	C387.163696,173.795670 390.528290,176.836609 390.452332,187.135376 
	C390.402008,193.957275 389.608429,200.771988 389.500732,207.595505 
	C389.318542,219.136932 391.476349,229.831070 402.214783,237.676315 
M105.150375,275.346191 
	C105.068100,281.991913 104.606682,288.660950 105.013634,295.276581 
	C105.395866,301.490448 108.766586,305.110474 114.944038,306.001740 
	C119.993935,306.730316 125.199471,306.582642 130.323807,306.425598 
	C131.374771,306.393402 132.371628,304.595184 133.393417,303.610962 
	C133.110199,303.145538 132.826965,302.680084 132.543747,302.214630 
	C127.582520,302.214630 122.580933,302.613495 117.669991,302.116577 
	C111.111000,301.452881 108.138031,298.235229 107.997086,291.652191 
	C107.854927,285.012848 108.310677,278.354156 108.659599,271.712128 
	C109.351898,258.533691 108.483727,245.988037 95.510811,238.042664 
	C106.371887,230.151978 108.957664,219.161407 108.675293,207.046844 
	C108.500854,199.562775 107.792007,192.081345 107.865807,184.604080 
	C107.938309,177.257812 110.973587,174.436325 118.296753,174.108063 
	C121.782066,173.951843 125.305969,174.420868 128.769302,174.116440 
	C130.325470,173.979645 131.775986,172.640991 133.274445,171.847687 
	C133.056580,171.268570 132.838715,170.689468 132.620850,170.110352 
	C129.834915,170.110352 127.047417,170.171722 124.263344,170.100037 
	C109.991135,169.732590 104.098244,175.495758 104.296715,189.726379 
	C104.324532,191.721359 104.586723,193.712372 104.637268,195.707840 
	C104.809875,202.521790 105.396019,209.365067 104.980621,216.145462 
	C104.219711,228.565872 98.804703,233.936768 86.454720,236.115982 
	C85.183250,236.340317 84.238609,238.416748 82.444069,240.408920 
	C95.381386,241.192184 101.743683,246.073395 104.083641,257.079285 
	C105.273239,262.674530 104.890778,268.603973 105.150375,275.346191 
z"/>
<path fill="#FCFCFC" opacity="1.000000" stroke="none" 
	d="
M203.877121,226.999939 
	C203.877121,216.350220 203.877121,206.200485 203.877121,195.753174 
	C210.572479,195.753174 217.001862,195.753174 223.712448,195.753174 
	C224.294174,198.140442 224.901031,200.630783 225.657623,203.735641 
	C230.706619,198.547668 235.029724,193.213806 242.524170,192.615112 
	C250.449158,191.982056 255.031357,194.554489 258.816772,202.860458 
	C260.234039,201.590027 261.351990,200.108063 262.838898,199.344269 
	C267.477631,196.961288 272.060883,193.726898 277.020416,192.865692 
	C287.531952,191.040390 294.696930,196.648499 296.920105,207.068314 
	C297.439117,209.500870 297.915436,212.003113 297.923096,214.474808 
	C297.997528,238.446304 297.967804,262.418121 297.967804,286.697632 
	C290.316406,286.697632 282.738312,286.697632 274.823883,286.697632 
	C274.823883,266.262726 274.839111,245.791473 274.804108,225.320297 
	C274.799866,222.833191 274.584747,220.341156 274.361664,217.860916 
	C274.021729,214.081528 271.652039,213.268677 268.356506,213.907379 
	C263.772949,214.795761 260.805511,218.506378 260.803436,223.438339 
	C260.794739,244.404358 260.799774,265.370392 260.799774,286.670502 
	C254.476639,286.670502 248.399017,286.670502 241.596130,286.670502 
	C241.596130,285.098663 241.596146,283.360931 241.596146,281.623199 
	C241.596130,263.132904 241.596909,244.642609 241.594604,226.152313 
	C241.594421,224.653259 241.778656,223.117691 241.520065,221.662552 
	C240.935333,218.372482 242.378448,213.640945 236.477646,213.750061 
	C231.788055,213.836731 227.573166,217.972610 227.563782,222.608887 
	C227.524307,242.098572 227.546936,261.588379 227.546829,281.078156 
	C227.546814,282.882202 227.546814,284.686279 227.546814,286.745880 
	C219.599655,286.745880 212.023590,286.745880 203.877121,286.745880 
	C203.877121,266.999420 203.877121,247.249680 203.877121,226.999939 
z"/>
<path fill="#E7E7E7" opacity="1.000000" stroke="none" 
	d="
M401.944305,237.413910 
	C391.476349,229.831070 389.318542,219.136932 389.500732,207.595505 
	C389.608429,200.771988 390.402008,193.957275 390.452332,187.135376 
	C390.528290,176.836609 387.163696,173.795670 376.828156,174.108414 
	C374.165039,174.188995 371.470459,174.439651 368.846893,174.131195 
	C367.432068,173.964844 366.136932,172.780502 364.787781,172.055435 
	C364.984039,171.323547 365.180298,170.591675 365.376526,169.859787 
	C371.823761,170.351593 378.403076,170.216293 384.675659,171.537338 
	C389.530670,172.559860 392.279083,177.007996 392.925201,181.883072 
	C393.553436,186.623093 393.341980,191.477570 393.447662,196.282928 
	C393.629883,204.564438 393.217072,212.906006 394.092377,221.111618 
	C394.913696,228.811417 401.603180,236.218246 411.283081,236.111740 
	C412.406006,236.099380 413.548584,237.875458 414.682068,238.822388 
	C413.918884,239.443893 413.229187,240.472794 412.381470,240.625717 
	C400.051880,242.849899 393.769775,249.334305 393.041229,261.992615 
	C392.602997,269.606171 393.013763,277.306274 393.556091,284.931000 
	C394.787048,302.237183 389.486572,307.837982 372.116577,306.665436 
	C369.588379,306.494812 365.707214,308.284210 364.913910,302.978821 
	C366.201630,302.789032 367.418091,302.471130 368.636627,302.462677 
	C370.463409,302.450043 372.290802,302.734070 374.119476,302.754150 
	C386.961456,302.894989 390.840179,298.915802 390.319946,285.988647 
	C390.058838,279.499878 389.557648,273.021210 389.240540,266.534241 
	C388.663147,254.724243 392.494324,244.869614 401.944305,237.413910 
z"/>
<path fill="#E8E8E8" opacity="1.000000" stroke="none" 
	d="
M105.184677,274.864258 
	C104.890778,268.603973 105.273239,262.674530 104.083641,257.079285 
	C101.743683,246.073395 95.381386,241.192184 82.444069,240.408920 
	C84.238609,238.416748 85.183250,236.340317 86.454720,236.115982 
	C98.804703,233.936768 104.219711,228.565872 104.980621,216.145462 
	C105.396019,209.365067 104.809875,202.521790 104.637268,195.707840 
	C104.586723,193.712372 104.324532,191.721359 104.296715,189.726379 
	C104.098244,175.495758 109.991135,169.732590 124.263344,170.100037 
	C127.047417,170.171722 129.834915,170.110352 132.620850,170.110352 
	C132.838715,170.689468 133.056580,171.268570 133.274445,171.847687 
	C131.775986,172.640991 130.325470,173.979645 128.769302,174.116440 
	C125.305969,174.420868 121.782066,173.951843 118.296753,174.108063 
	C110.973587,174.436325 107.938309,177.257812 107.865807,184.604080 
	C107.792007,192.081345 108.500854,199.562775 108.675293,207.046844 
	C108.957664,219.161407 106.371887,230.151978 95.510811,238.042664 
	C108.483727,245.988037 109.351898,258.533691 108.659599,271.712128 
	C108.310677,278.354156 107.854927,285.012848 107.997086,291.652191 
	C108.138031,298.235229 111.111000,301.452881 117.669991,302.116577 
	C122.580933,302.613495 127.582520,302.214630 132.543747,302.214630 
	C132.826965,302.680084 133.110199,303.145538 133.393417,303.610962 
	C132.371628,304.595184 131.374771,306.393402 130.323807,306.425598 
	C125.199471,306.582642 119.993935,306.730316 114.944038,306.001740 
	C108.766586,305.110474 105.395866,301.490448 105.013634,295.276581 
	C104.606682,288.660950 105.068100,281.991913 105.184677,274.864258 
z"/>
</svg>